<?xml version="1.0" standalone="no"?>
<!DOCTYPE svg PUBLIC "-//W3C//DTD SVG 20010904//EN"
 "http://www.w3.org/TR/2001/REC-SVG-20010904/DTD/svg10.dtd">
<svg version="1.0" xmlns="http://www.w3.org/2000/svg"
 width="433.000000pt" height="431.000000pt" viewBox="0 0 433.000000 431.000000"
 preserveAspectRatio="xMidYMid meet">

<g transform="translate(0.000000,431.000000) scale(0.100000,-0.100000)"
fill="#000000" stroke="none">
<path d="M2105 4031 c-42 -11 -93 -38 -139 -75 -49 -39 -140 -156 -169 -217
l-22 -47 -87 -11 c-284 -37 -555 -170 -724 -354 -109 -119 -196 -271 -248
-433 -47 -146 -57 -211 -63 -414 -10 -344 31 -517 164 -691 103 -137 293 -267
488 -335 44 -15 81 -28 83 -29 1 -1 -11 -42 -27 -91 -34 -102 -67 -241 -82
-352 -6 -43 -16 -83 -22 -91 -6 -7 -11 -38 -11 -67 2 -103 103 -253 204 -304
49 -25 131 -31 166 -12 16 8 44 6 120 -10 89 -18 121 -20 324 -14 l225 6 70
34 c54 27 92 37 165 46 191 22 298 51 373 101 63 42 77 76 70 174 -7 98 -22
130 -67 145 -32 10 -60 4 -117 -27 -4 -2 -9 11 -13 30 -8 45 -46 79 -89 80
l-35 1 21 28 c43 59 13 127 -67 150 -23 6 -42 13 -44 14 -2 1 13 19 32 40 43
47 60 93 52 139 -7 33 -6 34 64 69 71 37 146 86 210 138 31 25 42 28 107 28
137 0 254 42 293 105 24 39 26 102 5 153 -9 20 -38 62 -66 94 l-50 57 15 58
c8 32 18 81 22 110 6 49 9 54 64 92 156 110 211 237 145 337 -24 38 -101 82
-182 107 -54 15 -74 26 -79 41 -3 12 -22 56 -41 98 l-36 77 21 58 c103 282 51
467 -136 490 -58 7 -177 -17 -270 -54 l-62 -25 -104 52 -103 53 -18 81 c-48
226 -139 355 -260 370 -22 3 -53 1 -70 -3z m135 -113 c0 -6 -6 -5 -15 2 -8 7
-15 14 -15 16 0 2 7 1 15 -2 8 -4 15 -11 15 -16z m-67 5 c-7 -2 -19 -2 -25 0
-7 3 -2 5 12 5 14 0 19 -2 13 -5z m-66 -9 c-3 -3 -12 -4 -19 -1 -8 3 -5 6 6 6
11 1 17 -2 13 -5z m-37 -28 c0 -3 -4 -8 -10 -11 -5 -3 -10 -1 -10 4 0 6 5 11
10 11 6 0 10 -2 10 -4z m220 -40 c0 -6 -7 -1 -15 10 -8 10 -15 23 -15 28 0 6
7 1 15 -10 8 -10 15 -23 15 -28z m-295 14 c-1 -11 -5 -23 -10 -27 -4 -5 -4 -2
0 6 6 11 4 13 -10 7 -18 -7 -18 -6 0 14 22 25 22 25 20 0z m259 5 c3 -8 1 -15
-4 -15 -6 0 -10 7 -10 15 0 8 2 15 4 15 2 0 6 -7 10 -15z m9 -40 c-3 -9 -8
-14 -10 -11 -3 3 -2 9 2 15 9 16 15 13 8 -4z m-323 -35 c0 -5 -2 -10 -4 -10
-3 0 -8 5 -11 10 -3 6 -1 10 4 10 6 0 11 -4 11 -10z m400 -55 c0 -5 -5 -3 -10
5 -5 8 -10 20 -10 25 0 6 5 3 10 -5 5 -8 10 -19 10 -25z m-343 -21 c-3 -3 -12
-4 -19 -1 -8 3 -5 6 6 6 11 1 17 -2 13 -5z m-4 -31 c-7 -2 -21 -2 -30 0 -10 3
-4 5 12 5 17 0 24 -2 18 -5z m115 -10 c-10 -2 -26 -2 -35 0 -10 3 -2 5 17 5
19 0 27 -2 18 -5z m109 -19 c-3 -3 -12 -4 -19 -1 -8 3 -5 6 6 6 11 1 17 -2 13
-5z m80 0 c-3 -3 -12 -4 -19 -1 -8 3 -5 6 6 6 11 1 17 -2 13 -5z m-113 -63
c188 -43 375 -128 524 -241 94 -71 223 -203 281 -289 63 -92 128 -236 158
-348 24 -88 27 -115 26 -268 0 -180 -15 -264 -73 -417 -69 -184 -254 -367
-475 -472 -483 -229 -1198 -174 -1593 124 -245 184 -321 381 -309 800 6 204
26 311 87 465 143 360 434 588 840 659 128 23 405 15 534 -13z m186 19 c0 -5
-2 -10 -4 -10 -3 0 -8 5 -11 10 -3 6 -1 10 4 10 6 0 11 -4 11 -10z m655 -140
c13 -5 14 -9 5 -9 -8 0 -24 4 -35 9 -13 5 -14 9 -5 9 8 0 24 -4 35 -9z m-178
-16 c-3 -3 -12 -4 -19 -1 -8 3 -5 6 6 6 11 1 17 -2 13 -5z m126 -1 c-7 -2 -21
-2 -30 0 -10 3 -4 5 12 5 17 0 24 -2 18 -5z m97 -7 c9 -12 8 -15 -8 -13 -12 0
-18 6 -15 14 6 16 8 16 23 -1z m-173 -2 c-3 -3 -12 -4 -19 -1 -8 3 -5 6 6 6
11 1 17 -2 13 -5z m-117 -8 c0 -2 -7 -7 -16 -10 -8 -3 -12 -2 -9 4 6 10 25 14
25 6z m20 -68 c0 -12 -6 -9 -26 13 -19 22 -19 22 4 8 12 -8 22 -17 22 -21z
m297 -10 c-3 -8 -6 -5 -6 6 -1 11 2 17 5 13 3 -3 4 -12 1 -19z m-242 -33 c35
-36 31 -45 -5 -10 -16 16 -30 30 -30 32 0 8 11 1 35 -22z m75 -75 c0 -5 -2
-10 -4 -10 -3 0 -8 5 -11 10 -3 6 -1 10 4 10 6 0 11 -4 11 -10z m157 -42 c-3
-7 -5 -2 -5 12 0 14 2 19 5 13 2 -7 2 -19 0 -25z m-37 -48 l-11 -25 6 25 c2
14 5 34 6 45 2 19 2 19 6 0 2 -12 -1 -32 -7 -45z m-17 15 c-3 -9 -8 -14 -10
-11 -3 3 -2 9 2 15 9 16 15 13 8 -4z m43 -20 c-3 -13 -11 -37 -17 -52 -8 -22
-12 -24 -19 -13 -6 8 -10 20 -10 25 0 6 4 4 9 -4 7 -11 12 -3 22 27 13 45 25
59 15 17z m178 -451 c6 -14 4 -15 -10 -4 -13 12 -17 11 -25 -1 -5 -8 -9 -9 -9
-3 0 27 34 33 44 8z m116 -50 c0 -2 -16 4 -35 13 -19 9 -35 20 -35 25 0 4 16
-2 35 -13 19 -12 35 -23 35 -25z m-143 4 c-3 -8 -6 -5 -6 6 -1 11 2 17 5 13 3
-3 4 -12 1 -19z m108 -8 c3 -5 2 -10 -4 -10 -5 0 -13 5 -16 10 -3 6 -2 10 4
10 5 0 13 -4 16 -10z m56 -77 c-9 -16 -10 -14 -11 12 0 21 3 26 11 18 8 -8 8
-16 0 -30z m-27 -19 c3 -8 2 -12 -4 -9 -6 3 -10 10 -10 16 0 14 7 11 14 -7z
m-117 -36 c-3 -7 -5 -2 -5 12 0 14 2 19 5 13 2 -7 2 -19 0 -25z m90 26 c-3 -3
-12 -4 -19 -1 -8 3 -5 6 6 6 11 1 17 -2 13 -5z m-37 -96 c-22 -21 -38 -24 -21
-5 6 8 9 16 6 18 -2 3 5 5 15 5 19 0 19 -1 0 -18z m-171 -520 l-22 -23 19 33
c10 18 20 28 22 23 2 -6 -7 -21 -19 -33z m91 17 c7 -9 8 -15 2 -15 -5 0 -12 7
-16 15 -3 8 -4 15 -2 15 2 0 9 -7 16 -15z m-129 -88 c-10 -9 -11 -8 -5 6 3 10
9 15 12 12 3 -3 0 -11 -7 -18z m66 -33 c-3 -3 -12 -4 -19 -1 -8 3 -5 6 6 6 11
1 17 -2 13 -5z m-651 -391 c-10 -11 -37 -12 -30 -2 3 5 12 9 21 9 9 0 13 -3 9
-7z m-777 -62 c175 -22 393 -12 583 25 48 10 90 15 94 12 14 -14 94 -254 119
-353 39 -160 35 -288 -12 -326 -13 -12 -13 -9 1 25 38 92 3 175 -70 163 -25
-4 -34 -2 -34 8 0 30 -35 84 -61 95 -34 14 -55 8 -93 -26 -28 -26 -29 -27 -57
-10 -83 49 -158 -51 -159 -210 0 -63 21 -134 54 -185 l26 -39 -132 0 c-117 0
-229 10 -279 26 -14 4 -12 11 10 57 50 101 30 295 -36 347 -30 23 -70 25 -97
5 -17 -13 -22 -11 -53 15 -62 55 -130 32 -148 -50 -4 -18 -13 -30 -22 -30 -37
0 21 294 91 461 l15 35 86 -17 c48 -10 126 -23 174 -28z m758 17 c-3 -8 -6 -5
-6 6 -1 11 2 17 5 13 3 -3 4 -12 1 -19z m88 -218 c3 -5 1 -10 -4 -10 -6 0 -11
5 -11 10 0 6 2 10 4 10 3 0 8 -4 11 -10z m-1057 -237 l39 -47 38 32 c31 28 39
31 52 20 48 -40 61 -204 23 -284 -70 -145 -235 -103 -326 82 -17 35 -24 64
-22 90 3 35 6 39 28 36 84 -10 82 -11 85 41 3 45 18 77 35 77 4 0 26 -21 48
-47z m831 0 c6 -21 11 -48 11 -60 0 -30 9 -33 57 -20 50 13 57 8 55 -36 -3
-77 -87 -199 -165 -239 -76 -38 -148 -9 -188 77 -25 54 -25 195 -1 245 22 45
54 51 78 16 23 -36 48 -32 74 8 35 58 65 61 79 9z m370 -38 c222 -60 239 -139
45 -205 -45 -16 -217 -50 -250 -50 -3 0 8 16 25 35 48 55 62 91 68 171 3 41 9
74 12 74 3 0 48 -11 100 -25z"/>
<path d="M1005 2611 c-68 -42 -95 -91 -95 -172 0 -145 152 -223 278 -142 119
77 111 252 -15 317 -44 22 -130 21 -168 -3z"/>
<path d="M2278 2610 c-103 -55 -119 -219 -29 -298 41 -36 126 -57 173 -43 44
14 103 66 118 106 13 34 13 106 -1 142 -13 34 -55 80 -91 99 -39 20 -126 17
-170 -6z"/>
<path d="M877 2343 c-4 -3 -7 -11 -7 -17 0 -6 5 -5 12 2 6 6 9 14 7 17 -3 3
-9 2 -12 -2z"/>
<path d="M1450 2319 c-11 -19 -9 -24 11 -40 55 -41 206 -64 326 -49 145 18
219 58 181 97 -17 16 -21 16 -75 -2 -82 -26 -239 -32 -323 -10 -36 9 -75 19
-87 22 -15 3 -25 -1 -33 -18z"/>
<path d="M2604 2306 c-8 -22 3 -33 18 -18 9 9 9 15 0 24 -9 9 -13 7 -18 -6z"/>
<path d="M2408 2243 c7 -3 16 -2 19 1 4 3 -2 6 -13 5 -11 0 -14 -3 -6 -6z"/>
<path d="M883 2223 c9 -2 23 -2 30 0 6 3 -1 5 -18 5 -16 0 -22 -2 -12 -5z"/>
<path d="M998 2223 c7 -3 16 -2 19 1 4 3 -2 6 -13 5 -11 0 -14 -3 -6 -6z"/>
<path d="M2560 2216 c0 -2 11 -6 25 -8 14 -3 25 -1 25 3 0 5 -11 9 -25 9 -14
0 -25 -2 -25 -4z"/>
<path d="M908 2203 c7 -3 16 -2 19 1 4 3 -2 6 -13 5 -11 0 -14 -3 -6 -6z"/>
<path d="M2538 2183 c7 -3 16 -2 19 1 4 3 -2 6 -13 5 -11 0 -14 -3 -6 -6z"/>
<path d="M1637 1313 c-15 -14 -5 -35 34 -70 52 -47 75 -89 58 -109 -18 -22
-96 -17 -174 12 -100 37 -114 39 -121 20 -9 -22 15 -39 96 -70 120 -46 210
-43 245 7 32 46 4 120 -66 181 -42 35 -59 42 -72 29z"/>
<path d="M2082 1270 c-32 -31 -55 -65 -62 -88 -13 -49 -14 -46 15 -81 34 -40
89 -48 175 -26 92 24 160 60 160 86 0 26 -23 23 -123 -15 -70 -27 -160 -35
-172 -15 -14 21 8 63 57 111 42 40 48 51 38 63 -20 24 -34 18 -88 -35z"/>
<path d="M1548 770 c-10 -16 -20 -18 -49 -14 -37 6 -69 -13 -69 -41 0 -19 79
-82 112 -90 22 -6 29 -3 35 11 4 11 13 25 20 32 7 7 13 23 13 36 0 12 4 26 10
32 14 14 -16 54 -40 54 -11 0 -25 -9 -32 -20z m-45 -37 c-7 -2 -21 -2 -30 0
-10 3 -4 5 12 5 17 0 24 -2 18 -5z m91 -9 c4 -9 4 -19 1 -22 -3 -3 -5 0 -5 6
0 7 -7 12 -15 12 -8 0 -15 -5 -15 -12 0 -6 -3 -8 -6 -5 -8 7 14 37 26 37 4 0
11 -7 14 -16z m-69 -4 c-3 -5 -18 -9 -33 -9 l-27 1 30 8 c17 4 31 8 33 9 2 0
0 -3 -3 -9z"/>
<path d="M2180 770 c-17 -17 -17 -22 -4 -60 19 -56 43 -90 63 -90 22 0 93 49
86 60 -3 5 0 12 6 16 8 5 9 3 4 -6 -5 -8 -3 -11 5 -8 25 8 21 47 -5 64 -21 13
-31 15 -50 6 -21 -10 -26 -8 -34 7 -15 27 -49 33 -71 11z m20 -25 c-7 -9 -15
-13 -18 -10 -3 2 1 11 8 20 7 9 15 13 18 10 3 -2 -1 -11 -8 -20z m42 -19 c7 4
8 2 4 -5 -9 -13 -26 -5 -25 12 0 9 2 8 6 -1 2 -6 10 -9 15 -6z m82 8 c9 -3 16
-10 16 -16 0 -5 -4 -7 -9 -4 -5 4 -11 2 -13 -3 -1 -4 -12 -5 -23 0 -18 7 -18
8 5 9 23 1 23 2 5 10 -23 10 -5 13 19 4z m-64 -78 c0 -3 -4 -8 -10 -11 -5 -3
-10 -1 -10 4 0 6 5 11 10 11 6 0 10 -2 10 -4z"/>
</g>
</svg>
